<svg width="16" height="16" viewBox="0 0 16 16" fill="none" xmlns="http://www.w3.org/2000/svg">
<g clip-path="url(#clip0_1_2)">
<path d="M7 1.75C6.31056 1.75 5.62787 1.8858 4.99091 2.14963C4.35395 2.41347 3.7752 2.80018 3.28769 3.28769C2.80018 3.7752 2.41347 4.35395 2.14963 4.99091C1.8858 5.62787 1.75 6.31056 1.75 7C1.75 7.68944 1.8858 8.37213 2.14963 9.00909C2.41347 9.64605 2.80018 10.2248 3.28769 10.7123C3.7752 11.1998 4.35395 11.5865 4.99091 11.8504C5.62787 12.1142 6.31056 12.25 7 12.25C8.39239 12.25 9.72774 11.6969 10.7123 10.7123C11.6969 9.72774 12.25 8.39239 12.25 7C12.25 5.60761 11.6969 4.27226 10.7123 3.28769C9.72774 2.30312 8.39239 1.75 7 1.75ZM0.25 7C0.249838 5.92664 0.505653 4.86871 0.996216 3.91401C1.48678 2.9593 2.19794 2.13535 3.0707 1.51053C3.94346 0.885706 4.95264 0.478023 6.0145 0.321312C7.07636 0.1646 8.16029 0.26338 9.17633 0.609452C10.1924 0.955525 11.1112 1.53891 11.8567 2.3112C12.6021 3.0835 13.1526 4.02242 13.4625 5.05007C13.7724 6.07772 13.8328 7.16447 13.6386 8.22012C13.4444 9.27577 13.0013 10.2699 12.346 11.12L15.53 14.305C15.6037 14.3737 15.6628 14.4565 15.7038 14.5485C15.7448 14.6405 15.7668 14.7398 15.7686 14.8405C15.7704 14.9412 15.7518 15.0412 15.7141 15.1346C15.6764 15.228 15.6203 15.3128 15.549 15.384C15.4778 15.4553 15.393 15.5114 15.2996 15.5491C15.2062 15.5868 15.1062 15.6054 15.0055 15.6036C14.9048 15.6018 14.8055 15.5798 14.7135 15.5388C14.6215 15.4978 14.5387 15.4387 14.47 15.365L11.304 12.2C10.3171 13.0168 9.11822 13.536 7.84729 13.6968C6.57637 13.8576 5.28592 13.6534 4.12672 13.1081C2.96752 12.5628 1.98743 11.6989 1.30095 10.6173C0.614478 9.53568 0.249965 8.28106 0.25 7Z" fill="black"/>
</g>
<defs>
<clipPath id="clip0_1_2">
<rect width="16" height="16" fill="white"/>
</clipPath>
</defs>
</svg>
