<svg width="16" height="16" viewBox="0 0 16 16" fill="none" xmlns="http://www.w3.org/2000/svg">
<g clip-path="url(#clip0_0_3)">
<path d="M4.995 8.745C5.13563 8.60455 5.32625 8.52566 5.525 8.52566C5.72375 8.52566 5.91437 8.60455 6.055 8.745L7.25 9.939V4C7.25 3.80109 7.32902 3.61032 7.46967 3.46967C7.61032 3.32902 7.80109 3.25 8 3.25C8.19891 3.25 8.38968 3.32902 8.53033 3.46967C8.67098 3.61032 8.75 3.80109 8.75 4V9.94L9.945 8.745C10.0137 8.67131 10.0965 8.61221 10.1885 8.57122C10.2805 8.53023 10.3798 8.50819 10.4805 8.50641C10.5812 8.50463 10.6812 8.52316 10.7746 8.56088C10.868 8.5986 10.9528 8.65474 11.024 8.72596C11.0953 8.79718 11.1514 8.88201 11.1891 8.9754C11.2268 9.06879 11.2454 9.16882 11.2436 9.26952C11.2418 9.37023 11.2198 9.46954 11.1788 9.56154C11.1378 9.65354 11.0787 9.73634 11.005 9.805L8 12.811L7.472 12.283C7.47033 12.2813 7.46866 12.2797 7.467 12.278L4.995 9.805C4.85455 9.66437 4.77566 9.47375 4.77566 9.275C4.77566 9.07625 4.85455 8.88563 4.995 8.745Z" fill="white"/>
<path d="M0 8C0 5.87827 0.842855 3.84344 2.34315 2.34315C3.84344 0.842855 5.87827 0 8 0C10.1217 0 12.1566 0.842855 13.6569 2.34315C15.1571 3.84344 16 5.87827 16 8C16 10.1217 15.1571 12.1566 13.6569 13.6569C12.1566 15.1571 10.1217 16 8 16C5.87827 16 3.84344 15.1571 2.34315 13.6569C0.842855 12.1566 0 10.1217 0 8ZM8 1.5C6.27609 1.5 4.62279 2.18482 3.40381 3.40381C2.18482 4.62279 1.5 6.27609 1.5 8C1.5 9.72391 2.18482 11.3772 3.40381 12.5962C4.62279 13.8152 6.27609 14.5 8 14.5C9.72391 14.5 11.3772 13.8152 12.5962 12.5962C13.8152 11.3772 14.5 9.72391 14.5 8C14.5 6.27609 13.8152 4.62279 12.5962 3.40381C11.3772 2.18482 9.72391 1.5 8 1.5Z" fill="white"/>
</g>
<defs>
<clipPath id="clip0_0_3">
<rect width="16" height="16" fill="white"/>
</clipPath>
</defs>
</svg>
