<svg width="16" height="16" viewBox="0 0 16 16" fill="none" xmlns="http://www.w3.org/2000/svg">
<path d="M11.196 8L6 5V11L11.196 8Z" fill="white"/>
<path d="M15.002 1.75C15.002 1.28587 14.8176 0.840752 14.4894 0.512563C14.1612 0.184374 13.7161 0 13.252 0H2.752C2.28787 0 1.84275 0.184374 1.51456 0.512563C1.18637 0.840752 1.002 1.28587 1.002 1.75V14.25C1.002 15.216 1.785 16 2.752 16H13.252C13.7161 16 14.1612 15.8156 14.4894 15.4874C14.8176 15.1592 15.002 14.7141 15.002 14.25V1.75ZM13.252 1.5C13.3183 1.5 13.3819 1.52634 13.4288 1.57322C13.4757 1.62011 13.502 1.6837 13.502 1.75V14.25C13.502 14.3163 13.4757 14.3799 13.4288 14.4268C13.3819 14.4737 13.3183 14.5 13.252 14.5H2.752C2.6857 14.5 2.62211 14.4737 2.57522 14.4268C2.52834 14.3799 2.502 14.3163 2.502 14.25V1.75C2.502 1.6837 2.52834 1.62011 2.57522 1.57322C2.62211 1.52634 2.6857 1.5 2.752 1.5H13.252Z" fill="white"/>
</svg>
