<svg width="16" height="16" viewBox="0 0 16 16" fill="none" xmlns="http://www.w3.org/2000/svg">
<g clip-path="url(#clip0_1_2)">
<path d="M6.233 0.371C7.07216 0.00185499 8.00586 -0.0951904 8.90299 0.0934912C9.80012 0.282173 10.6156 0.747104 11.235 1.423C11.656 1.882 11.948 2.415 12.139 2.977C12.282 3.398 12.402 4.15 12.359 4.871C12.281 6.193 11.721 7.279 10.96 8.187L10.833 8.339C10.763 8.42296 10.7121 8.52123 10.6841 8.62691C10.656 8.73259 10.6514 8.84313 10.6705 8.95078C10.6897 9.05843 10.7321 9.1606 10.7949 9.25012C10.8577 9.33963 10.9393 9.41434 11.034 9.469L13.243 10.744C13.9651 11.1609 14.5648 11.7606 14.9817 12.4828C15.3986 13.2049 15.6181 14.0241 15.618 14.858V16H0.382V14.857C0.382109 14.0233 0.60164 13.2043 1.01853 12.4824C1.43543 11.7604 2.035 11.1608 2.757 10.744L4.966 9.469C5.0607 9.41434 5.14231 9.33963 5.20509 9.25012C5.26788 9.1606 5.31034 9.05843 5.32949 8.95078C5.34864 8.84313 5.34402 8.73259 5.31595 8.62691C5.28788 8.52123 5.23704 8.42296 5.167 8.339L5.041 8.187C4.28 7.279 3.719 6.193 3.641 4.871C3.598 4.15 3.718 3.398 3.861 2.977C4.05073 2.40165 4.35865 1.87233 4.765 1.423C5.176 0.975 5.675 0.616 6.233 0.371ZM8 1.5C7.59939 1.49991 7.20315 1.58317 6.83645 1.74448C6.46976 1.90579 6.14063 2.14163 5.87 2.437C5.6049 2.73296 5.40462 3.08107 5.282 3.459C5.205 3.685 5.107 4.242 5.139 4.782C5.193 5.703 5.579 6.494 6.19 7.224L6.192 7.225L6.319 7.378C6.52913 7.62989 6.68164 7.92468 6.76585 8.24172C6.85005 8.55876 6.86392 8.89038 6.80647 9.21334C6.74902 9.5363 6.62165 9.84279 6.43328 10.1113C6.24492 10.3799 6.0001 10.604 5.716 10.768L3.507 12.043C3.06551 12.298 2.69019 12.6532 2.41138 13.08C2.13256 13.5068 1.95807 13.9933 1.902 14.5H14.098C14.0419 13.9933 13.8674 13.5068 13.5886 13.08C13.3098 12.6532 12.9345 12.298 12.493 12.043L10.284 10.768C9.9999 10.604 9.75508 10.3799 9.56672 10.1113C9.37835 9.84279 9.25098 9.5363 9.19353 9.21334C9.13608 8.89038 9.14995 8.55876 9.23415 8.24172C9.31836 7.92468 9.47087 7.62989 9.681 7.378L9.808 7.225L9.81 7.224C10.422 6.494 10.807 5.704 10.862 4.782C10.894 4.242 10.795 3.685 10.718 3.459C10.5954 3.08107 10.3951 2.73296 10.13 2.437C9.85937 2.14163 9.53024 1.90579 9.16355 1.74448C8.79685 1.58317 8.40061 1.49991 8 1.5Z" fill="white"/>
</g>
<defs>
<clipPath id="clip0_1_2">
<rect width="16" height="16" fill="white"/>
</clipPath>
</defs>
</svg>
