<svg width="32" height="32" viewBox="0 0 32 32" fill="none" xmlns="http://www.w3.org/2000/svg">
<path d="M6.94667 2.09333C8.48529 1.60373 10.1272 1.53662 11.7007 1.89901C13.2741 2.26141 14.7212 3.04001 15.8907 4.15333C15.921 4.18032 15.9601 4.19524 16.0007 4.19524C16.0412 4.19524 16.0804 4.18032 16.1107 4.15333C17.1122 3.19762 18.321 2.48618 19.6428 2.0745C20.9646 1.66282 22.3635 1.56204 23.7307 1.78L23.736 1.78133C25.5561 2.07914 27.2421 2.92478 28.5693 4.20546C29.8964 5.48614 30.8016 7.141 31.164 8.94933V8.95333C31.4254 10.2785 31.3825 11.6458 31.0383 12.9519C30.6942 14.2581 30.0578 15.469 29.1773 16.4933L18.572 29.1333C18.2569 29.5087 17.8634 29.8105 17.4192 30.0176C16.9749 30.2247 16.4908 30.332 16.0007 30.332C15.5106 30.332 15.0264 30.2247 14.5822 30.0176C14.138 29.8105 13.7445 29.5087 13.4293 29.1333L2.82667 16.4933C1.94476 15.4695 1.30726 14.2586 0.962382 12.952C0.617504 11.6455 0.574286 10.2777 0.836 8.952C1.14572 7.36578 1.87644 5.89208 2.95155 4.68537C4.02666 3.47866 5.40657 2.58337 6.94667 2.09333ZM11.1067 4.49733C10.2771 4.30568 9.41749 4.283 8.57899 4.43064C7.7405 4.57828 6.94031 4.89323 6.22612 5.3567C5.51193 5.82018 4.89837 6.42269 4.42199 7.12834C3.94562 7.83399 3.61619 8.62833 3.45333 9.464L3.452 9.46667C3.26801 10.3971 3.29834 11.3571 3.54068 12.2741C3.78303 13.191 4.23101 14.0407 4.85067 14.7587L4.86267 14.772L15.4733 27.4187C15.5382 27.4951 15.6189 27.5565 15.7098 27.5986C15.8008 27.6407 15.8998 27.6625 16 27.6625C16.1002 27.6625 16.1992 27.6407 16.2902 27.5986C16.3811 27.5565 16.4618 27.4951 16.5267 27.4187L27.1507 14.7587C27.7692 14.0411 28.2165 13.1923 28.4588 12.2764C28.7011 11.3605 28.7321 10.4016 28.5493 9.472C28.2931 8.19613 27.6543 7.02859 26.718 6.12486C25.7816 5.22114 24.5922 4.62413 23.308 4.41333C22.3453 4.25987 21.3602 4.33119 20.4296 4.62171C19.4991 4.91223 18.6484 5.41408 17.944 6.088L17.9333 6.09867C17.409 6.58898 16.7179 6.86175 16 6.86175C15.2821 6.86175 14.591 6.58898 14.0667 6.09867L14.0573 6.08933C13.234 5.3034 12.2157 4.75351 11.1067 4.49733Z" fill="white"/>
</svg>
