<svg width="16" height="16" viewBox="0 0 16 16" fill="none" xmlns="http://www.w3.org/2000/svg">
<g clip-path="url(#clip0_0_3)">
<path d="M8 1.5C6.93913 1.5 5.92172 1.92143 5.17157 2.67157C4.42143 3.42172 4 4.43913 4 5.5V8.77C3.9998 8.90093 3.96532 9.02953 3.9 9.143L2.255 12H13.745L12.1 9.142C12.0345 9.02823 12 8.89927 12 8.768V5.5C12 4.43913 11.5786 3.42172 10.8284 2.67157C10.0783 1.92143 9.06087 1.5 8 1.5ZM2.5 5.5C2.5 4.04131 3.07946 2.64236 4.11091 1.61091C5.14236 0.579463 6.54131 0 8 0C9.45869 0 10.8576 0.579463 11.8891 1.61091C12.9205 2.64236 13.5 4.04131 13.5 5.5V8.567L15.693 12.376C15.7586 12.49 15.7931 12.6193 15.7929 12.7508C15.7928 12.8824 15.758 13.0116 15.6922 13.1255C15.6263 13.2393 15.5317 13.3339 15.4177 13.3996C15.3038 13.4654 15.1745 13.5 15.043 13.5H10.5C10.5 14.163 10.2366 14.7989 9.76777 15.2678C9.29893 15.7366 8.66304 16 8 16C7.33696 16 6.70107 15.7366 6.23223 15.2678C5.76339 14.7989 5.5 14.163 5.5 13.5H0.957C0.825453 13.5 0.696225 13.4654 0.582283 13.3996C0.468341 13.3339 0.373695 13.2393 0.307841 13.1255C0.241987 13.0116 0.207243 12.8824 0.207096 12.7508C0.206948 12.6193 0.241402 12.49 0.307 12.376L2.5 8.569V5.5ZM7 13.5C7 13.7652 7.10536 14.0196 7.29289 14.2071C7.48043 14.3946 7.73478 14.5 8 14.5C8.26522 14.5 8.51957 14.3946 8.70711 14.2071C8.89464 14.0196 9 13.7652 9 13.5H7Z" fill="white"/>
</g>
<defs>
<clipPath id="clip0_0_3">
<rect width="16" height="16" fill="white"/>
</clipPath>
</defs>
</svg>
