<svg width="16" height="16" viewBox="0 0 16 16" fill="none" xmlns="http://www.w3.org/2000/svg">
<path d="M2 3.75C2 2.784 2.784 2 3.75 2H12.25C13.216 2 14 2.784 14 3.75V10.25C14 10.7141 13.8156 11.1592 13.4874 11.4874C13.1592 11.8156 12.7141 12 12.25 12H3.75C3.28587 12 2.84075 11.8156 2.51256 11.4874C2.18437 11.1592 2 10.7141 2 10.25V3.75ZM3.75 3.5C3.6837 3.5 3.62011 3.52634 3.57322 3.57322C3.52634 3.62011 3.5 3.6837 3.5 3.75V10.25C3.5 10.388 3.612 10.5 3.75 10.5H12.25C12.3163 10.5 12.3799 10.4737 12.4268 10.4268C12.4737 10.3799 12.5 10.3163 12.5 10.25V3.75C12.5 3.6837 12.4737 3.62011 12.4268 3.57322C12.3799 3.52634 12.3163 3.5 12.25 3.5H3.75ZM0.25 15.25C0.25 15.0511 0.329018 14.8603 0.46967 14.7197C0.610322 14.579 0.801088 14.5 1 14.5H15C15.1989 14.5 15.3897 14.579 15.5303 14.7197C15.671 14.8603 15.75 15.0511 15.75 15.25C15.75 15.4489 15.671 15.6397 15.5303 15.7803C15.3897 15.921 15.1989 16 15 16H1C0.801088 16 0.610322 15.921 0.46967 15.7803C0.329018 15.6397 0.25 15.4489 0.25 15.25Z" fill="white"/>
</svg>
