<svg width="16" height="16" viewBox="0 0 16 16" fill="none" xmlns="http://www.w3.org/2000/svg">
<path d="M4.97 0.47C4.82955 0.610625 4.75066 0.801249 4.75066 1C4.75066 1.19875 4.82955 1.38937 4.97 1.53L11.44 8L4.97 14.47C4.89631 14.5387 4.83721 14.6215 4.79622 14.7135C4.75523 14.8055 4.73319 14.9048 4.73141 15.0055C4.72963 15.1062 4.74816 15.2062 4.78588 15.2996C4.8236 15.393 4.87974 15.4778 4.95096 15.549C5.02218 15.6203 5.10701 15.6764 5.2004 15.7141C5.29379 15.7518 5.39382 15.7704 5.49452 15.7686C5.59523 15.7668 5.69454 15.7448 5.78654 15.7038C5.87854 15.6628 5.96134 15.6037 6.03 15.53L13.56 8L6.03 0.47C5.88937 0.32955 5.69875 0.25066 5.5 0.25066C5.30125 0.25066 5.11063 0.32955 4.97 0.47Z" fill="white"/>
</svg>
