<svg width="16" height="16" viewBox="0 0 16 16" fill="none" xmlns="http://www.w3.org/2000/svg">
<g clip-path="url(#clip0_0_3)">
<path d="M1.69 2C2.54442 1.19461 3.67542 0.747963 4.84959 0.752243C6.02376 0.756523 7.15147 1.2114 8 2.023C8.51049 1.53721 9.12612 1.17569 9.79905 0.966524C10.472 0.757361 11.1841 0.706194 11.88 0.817H11.882C12.8087 0.968697 13.6672 1.39933 14.3429 2.05146C15.0186 2.70359 15.4795 3.54623 15.664 4.467V4.47C15.7972 5.14484 15.7754 5.84112 15.6003 6.50631C15.4251 7.1715 15.1012 7.78824 14.653 8.31L9.35 14.629C9.10042 14.9253 8.76027 15.1313 8.38202 15.2152C8.00377 15.299 7.60843 15.2561 7.257 15.093C7.02398 14.9846 6.81749 14.8266 6.652 14.63L1.348 8.309C0.58427 7.41458 0.193717 6.26074 0.257194 5.08633C0.32067 3.91192 0.833315 2.80689 1.689 2H1.69ZM4.848 2.252C4.25755 2.249 3.67867 2.41567 3.18022 2.73219C2.68177 3.0487 2.28473 3.50174 2.03633 4.0374C1.78793 4.57307 1.69864 5.16881 1.77906 5.75376C1.85949 6.33871 2.10625 6.88825 2.49 7.337L2.495 7.342L7.8 13.664C7.83725 13.7078 7.88779 13.7382 7.94392 13.7507C8.00005 13.7631 8.05872 13.7569 8.111 13.733C8.14568 13.7168 8.1764 13.6933 8.201 13.664L13.513 7.334C13.8139 6.98465 14.0314 6.57151 14.1492 6.12578C14.267 5.68005 14.282 5.21337 14.193 4.761C14.0683 4.13992 13.7574 3.57156 13.3017 3.13156C12.846 2.69156 12.2671 2.4008 11.642 2.298C11.1732 2.22346 10.6935 2.25832 10.2404 2.39988C9.78726 2.54143 9.37301 2.78584 9.03 3.114L9.023 3.121C8.74524 3.37946 8.37991 3.52314 8.0005 3.52314C7.62109 3.52314 7.25576 3.37946 6.978 3.121L6.969 3.113C6.39875 2.56435 5.63932 2.25607 4.848 2.252Z" fill="white"/>
</g>
<defs>
<clipPath id="clip0_0_3">
<rect width="16" height="16" fill="white"/>
</clipPath>
</defs>
</svg>
