<svg width="10" height="16" viewBox="0 0 10 16" fill="none" xmlns="http://www.w3.org/2000/svg">
<path d="M9.03 0.47C9.17045 0.610625 9.24934 0.801249 9.24934 1C9.24934 1.19875 9.17045 1.38937 9.03 1.53L2.56 8L9.03 14.47C9.10369 14.5387 9.16279 14.6215 9.20378 14.7135C9.24477 14.8055 9.26682 14.9048 9.26859 15.0055C9.27037 15.1062 9.25184 15.2062 9.21412 15.2996C9.1764 15.393 9.12026 15.4778 9.04904 15.549C8.97782 15.6203 8.89299 15.6764 8.7996 15.7141C8.70621 15.7518 8.60618 15.7704 8.50548 15.7686C8.40477 15.7668 8.30546 15.7448 8.21346 15.7038C8.12146 15.6628 8.03866 15.6037 7.97 15.53L0.44 8L7.97 0.47C8.11063 0.32955 8.30125 0.25066 8.5 0.25066C8.69875 0.25066 8.88937 0.32955 9.03 0.47Z" fill="white"/>
</svg>
