<svg width="16" height="16" viewBox="0 0 16 16" fill="none" xmlns="http://www.w3.org/2000/svg">
<path d="M9.741 0.85C9.85509 0.915867 9.94981 1.01062 10.0156 1.12473C10.0815 1.23883 10.1161 1.36827 10.116 1.5V14.5C10.1161 14.6317 10.0815 14.7611 10.0157 14.8752C9.94991 14.9893 9.85524 15.084 9.74121 15.1499C9.62718 15.2158 9.49781 15.2505 9.36612 15.2505C9.23443 15.2505 9.10505 15.2158 8.991 15.15L2.066 11.15C1.2322 10.6666 0.624018 9.87232 0.374722 8.9413C0.125426 8.01028 0.25534 7.01841 0.736 6.183C1.05484 5.63004 1.51352 5.17067 2.066 4.851L8.991 0.851C9.10502 0.785174 9.23435 0.750519 9.366 0.750519C9.49765 0.750519 9.62699 0.784174 9.741 0.85ZM2.817 6.15C2.49297 6.33806 2.22401 6.60793 2.03706 6.9326C1.8501 7.25727 1.7517 7.62535 1.7517 8C1.7517 8.37465 1.8501 8.74273 2.03706 9.0674C2.22401 9.39207 2.49297 9.66194 2.817 9.85L8.617 13.2V2.8L2.817 6.15ZM11.5 12.237C12.3726 11.9236 13.1271 11.3484 13.6605 10.5901C14.194 9.83171 14.4802 8.92716 14.4802 8C14.4802 7.07284 14.194 6.16829 13.6605 5.40993C13.1271 4.65157 12.3726 4.0764 11.5 3.763V5.413C11.9514 5.67749 12.3257 6.05546 12.5858 6.50937C12.846 6.96328 12.9828 7.47734 12.9828 8.0005C12.9828 8.52366 12.846 9.03772 12.5858 9.49163C12.3257 9.94554 11.9514 10.3235 11.5 10.588V12.237Z" fill="white"/>
</svg>
